<mxfile host="65bd71144e">
    <diagram id="aKmNmXI3mZdS3OfvJ5jg" name="Страница 1">
        <mxGraphModel dx="1035" dy="797" grid="1" gridSize="18" guides="1" tooltips="1" connect="1" arrows="1" fold="1" page="1" pageScale="1" pageWidth="827" pageHeight="1169" math="0" shadow="0">
            <root>
                <mxCell id="0"/>
                <mxCell id="1" parent="0"/>
                <mxCell id="4" value="" style="edgeStyle=none;html=1;fontSize=18;" parent="1" source="2" target="3" edge="1">
                    <mxGeometry relative="1" as="geometry"/>
                </mxCell>
                <mxCell id="2" value="&lt;font style=&quot;font-size: 18px&quot;&gt;НАЧАЛО&lt;/font&gt;" style="ellipse;whiteSpace=wrap;html=1;" parent="1" vertex="1">
                    <mxGeometry x="262" width="152" height="80" as="geometry"/>
                </mxCell>
                <mxCell id="6" value="" style="edgeStyle=none;html=1;fontSize=18;" parent="1" source="3" target="5" edge="1">
                    <mxGeometry relative="1" as="geometry"/>
                </mxCell>
                <mxCell id="3" value="&lt;font style=&quot;font-size: 18px&quot;&gt;array //задан массив&lt;br&gt;i = 0 //счетчик&lt;br&gt;len = length(array) //длина массива&lt;br&gt;resultArray = Empty //создание пустого массива&lt;br&gt;&lt;/font&gt;" style="whiteSpace=wrap;html=1;" parent="1" vertex="1">
                    <mxGeometry x="126" y="116" width="423" height="114.75" as="geometry"/>
                </mxCell>
                <mxCell id="8" value="&lt;font style=&quot;font-size: 18px&quot;&gt;No&lt;br&gt;&lt;/font&gt;" style="edgeStyle=none;html=1;strokeWidth=1;jumpSize=10;fontSize=18;" edge="1" parent="1" source="5" target="7">
                    <mxGeometry x="-0.3125" y="22" relative="1" as="geometry">
                        <mxPoint as="offset"/>
                    </mxGeometry>
                </mxCell>
                <mxCell id="10" value="" style="edgeStyle=none;jumpSize=10;html=1;fontSize=18;strokeWidth=1;" edge="1" parent="1" source="5" target="9">
                    <mxGeometry relative="1" as="geometry"/>
                </mxCell>
                <mxCell id="11" value="Yes" style="edgeLabel;html=1;align=center;verticalAlign=middle;resizable=0;points=[];fontSize=18;" vertex="1" connectable="0" parent="10">
                    <mxGeometry x="-0.525" y="-3" relative="1" as="geometry">
                        <mxPoint x="-32" y="12" as="offset"/>
                    </mxGeometry>
                </mxCell>
                <mxCell id="5" value="&lt;font style=&quot;font-size: 18px&quot;&gt;i &amp;lt; len&lt;/font&gt;" style="rhombus;whiteSpace=wrap;html=1;" parent="1" vertex="1">
                    <mxGeometry x="261" y="278" width="152" height="80" as="geometry"/>
                </mxCell>
                <mxCell id="7" value="&lt;font style=&quot;font-size: 18px&quot;&gt;КОНЕЦ&lt;/font&gt;" style="ellipse;whiteSpace=wrap;html=1;" vertex="1" parent="1">
                    <mxGeometry x="582" y="276" width="156" height="84" as="geometry"/>
                </mxCell>
                <mxCell id="13" value="Yes" style="edgeStyle=none;jumpSize=10;html=1;fontSize=18;strokeWidth=1;" edge="1" parent="1" source="9" target="12">
                    <mxGeometry x="-0.2414" y="28" relative="1" as="geometry">
                        <mxPoint as="offset"/>
                    </mxGeometry>
                </mxCell>
                <mxCell id="15" value="No" style="edgeStyle=none;jumpSize=10;html=1;fontSize=18;strokeWidth=1;" edge="1" parent="1" source="9" target="14">
                    <mxGeometry x="-0.1441" y="-32" relative="1" as="geometry">
                        <mxPoint as="offset"/>
                    </mxGeometry>
                </mxCell>
                <mxCell id="9" value="длина строки array[i] &amp;lt;= 3 символов" style="rhombus;whiteSpace=wrap;html=1;fontSize=18;" vertex="1" parent="1">
                    <mxGeometry x="156" y="409" width="362" height="176" as="geometry"/>
                </mxCell>
                <mxCell id="17" style="edgeStyle=none;jumpSize=10;html=1;entryX=1;entryY=0.5;entryDx=0;entryDy=0;fontSize=18;strokeWidth=1;" edge="1" parent="1" source="12" target="14">
                    <mxGeometry relative="1" as="geometry">
                        <Array as="points">
                            <mxPoint x="665" y="678"/>
                        </Array>
                    </mxGeometry>
                </mxCell>
                <mxCell id="12" value="resultArray = resultArray + array[i] //записываем строку в массив" style="whiteSpace=wrap;html=1;fontSize=18;" vertex="1" parent="1">
                    <mxGeometry x="576" y="445" width="178" height="104" as="geometry"/>
                </mxCell>
                <mxCell id="16" style="edgeStyle=none;jumpSize=10;html=1;fontSize=18;strokeWidth=1;" edge="1" parent="1" source="14">
                    <mxGeometry relative="1" as="geometry">
                        <mxPoint x="338" y="252" as="targetPoint"/>
                        <Array as="points">
                            <mxPoint x="126" y="678"/>
                            <mxPoint x="126" y="252"/>
                        </Array>
                    </mxGeometry>
                </mxCell>
                <mxCell id="14" value="i = i + 1" style="whiteSpace=wrap;html=1;fontSize=18;" vertex="1" parent="1">
                    <mxGeometry x="278" y="648" width="120" height="60" as="geometry"/>
                </mxCell>
            </root>
        </mxGraphModel>
    </diagram>
</mxfile>